<svg width="109" height="80" viewBox="0 0 109 80" fill="none" xmlns="http://www.w3.org/2000/svg">
<g clip-path="url(#clip0_302_8)">
<path d="M22.2457 0.898291C22.3016 0.926559 22.3576 0.954826 22.4152 0.98395C23.6346 1.65041 24.5247 2.79996 24.9203 4.125C25.0326 4.52176 25.1355 4.92343 25.1519 5.33686C25.156 5.42075 25.156 5.42075 25.1602 5.50632C25.1991 7.02891 24.6859 8.44227 23.6381 9.55056C23.492 9.70022 23.343 9.84676 23.1931 9.99258C23.0404 10.1415 22.9012 10.299 22.7634 10.4617C22.6427 10.5968 22.5138 10.722 22.3844 10.8488C22.1491 11.08 21.9388 11.3243 21.7334 11.5823C21.6039 11.7399 21.467 11.889 21.3276 12.0377C21.0968 12.2852 20.8847 12.5428 20.6782 12.8108C20.5156 13.0213 20.3481 13.2268 20.1772 13.4306C19.8114 13.8675 19.4782 14.3189 19.1547 14.7875C19.0478 14.9403 18.9374 15.0903 18.827 15.2405C17.7682 16.6845 16.8438 18.2316 16.0106 19.8151C15.9569 19.9159 15.9033 20.0168 15.8496 20.1177C14.926 21.8607 14.1361 23.6634 13.4742 25.5218C13.4503 25.5885 13.4263 25.6551 13.4023 25.7218C12.117 29.3065 11.3471 33.0355 11.0436 36.8296C11.0381 36.8965 11.0326 36.9635 11.0269 37.0324C10.6475 41.8272 11.1465 46.7139 18.7332 64.9385C18.815 65.0516 18.896 65.1653 18.9768 65.2791C19.9148 66.5942 20.9414 67.8401 22.024 69.0384C22.1279 69.1542 22.23 69.2713 22.3316 69.389C22.477 69.5563 22.6305 69.7122 22.7886 69.8675C22.8786 69.9591 22.9618 70.054 23.0449 70.1519C23.1894 70.3206 23.3429 70.4761 23.5018 70.6308C24.5785 71.6818 25.1315 73.0568 25.1717 74.5575C25.1365 75.8714 24.7134 77.0733 23.8838 78.0978C23.8573 78.1324 23.8308 78.167 23.8035 78.2026C22.9778 79.24 21.5856 79.8436 20.2943 79.9904C18.8874 80.1134 17.4661 79.7768 16.3474 78.893C16.3158 78.8681 16.2842 78.8431 16.2516 78.8174C15.925 78.5547 15.6286 78.2646 15.3353 77.9657C15.2468 77.8756 15.1578 77.7861 15.0686 77.6966C14.8028 77.4288 14.5415 77.1588 14.2961 76.8718C14.1506 76.7033 13.9968 76.5425 13.8441 76.3805C13.5923 76.1117 13.3436 75.8416 13.1044 75.5614C13.0557 75.505 13.007 75.4486 12.9582 75.3922C12.4548 74.8084 11.9689 74.2122 11.4946 73.6045C11.4093 73.4953 11.3237 73.3863 11.238 73.2773C10.5772 72.4345 9.94269 71.5756 9.34479 70.6869C9.25519 70.5538 9.16529 70.4208 9.07535 70.2879C8.61113 69.6012 8.15843 68.9103 7.74098 68.1938C7.65488 68.0462 7.56797 67.8991 7.48101 67.752C5.9137 65.0933 4.58896 62.3262 3.48745 59.4452C3.46254 59.3801 3.43763 59.3151 3.41196 59.248C2.71266 57.41 2.13233 55.5357 1.63805 53.6328C1.62888 53.5975 1.61972 53.5623 1.61028 53.526C0.826458 50.5011 0.365633 47.4206 0.148614 44.3065C0.144125 44.2423 0.139636 44.1782 0.135012 44.1121C0.0468005 42.8358 -0.0109726 41.5602 -0.00660423 40.2807C-0.00648716 40.2335 -0.00637009 40.1862 -0.00624947 40.1375C-0.00531223 39.8099 -0.00311904 39.4822 7.89729e-07 39.1546C0.000330718 39.1175 0.000660646 39.0805 0.00100057 39.0423C0.0494906 34.0608 0.825992 29.0384 2.58917 23.4082C2.6024 23.3674 2.61562 23.3266 2.62925 23.2846C3.87734 19.4395 5.55982 15.7134 7.66182 12.2589C7.71257 12.1746 7.76329 12.0903 7.81395 12.0059C8.09421 11.5409 8.38422 11.0822 8.67569 10.6242C8.71023 10.5697 8.74476 10.5153 8.78034 10.4591C8.98063 10.146 9.18985 9.84245 9.41036 9.54327C9.53289 9.37598 9.65073 9.20575 9.76846 9.03507C10.163 8.46359 10.5785 7.91005 11.0029 7.3605C11.0847 7.25429 11.166 7.14769 11.2469 7.04075C11.4841 6.7278 11.7299 6.42434 11.9856 6.12647C12.1614 5.92086 12.3283 5.70969 12.4934 5.49539C12.7388 5.17807 13.0032 4.88352 13.2779 4.59153C13.3932 4.46861 13.5058 4.34457 13.6163 4.21731C14.0996 3.66036 14.602 3.12142 15.1123 2.58918C15.1554 2.5442 15.1985 2.49923 15.2429 2.4529C17.1331 0.491757 19.6855 -0.396096 22.2457 0.898291Z" fill="white"/>
<path d="M88.5204 -0.0165275C88.5832 -0.0163061 88.646 -0.0160847 88.7108 -0.0158566C89.1727 -0.00992425 89.594 0.0296041 90.0396 0.158506C90.0931 0.173218 90.1467 0.187931 90.2018 0.203089C91.2163 0.510339 91.9836 1.12703 92.7344 1.84939C92.7754 1.88883 92.8164 1.92827 92.8587 1.9689C93.0572 2.16398 93.2412 2.36754 93.4224 2.57863C93.5492 2.71939 93.6829 2.85246 93.8177 2.98545C94.0145 3.17998 94.2033 3.37821 94.383 3.58878C94.4979 3.7216 94.6168 3.85033 94.7358 3.97951C94.9498 4.21412 95.1522 4.45543 95.3515 4.70255C95.5037 4.88752 95.6611 5.06749 95.819 5.24767C96.1154 5.58735 96.397 5.93599 96.6723 6.29294C96.7566 6.40174 96.8416 6.50991 96.9268 6.61801C97.3291 7.12975 97.7175 7.64971 98.0947 8.1802C98.1745 8.29242 98.2547 8.40439 98.3349 8.51633C99.6144 10.3086 100.758 12.191 101.81 14.1248C101.85 14.1985 101.85 14.1985 101.891 14.2736C102.106 14.6711 102.308 15.0744 102.509 15.4792C102.561 15.5844 102.613 15.6895 102.666 15.7945C103.526 17.5146 104.284 19.2755 104.941 21.0832C104.966 21.152 104.991 21.2208 105.016 21.2896C105.98 23.9259 106.723 26.6253 107.265 29.3791C107.278 29.444 107.278 29.444 107.291 29.5101C107.888 32.553 108.189 35.6845 108.217 38.7847C108.217 38.8457 108.217 38.8457 108.218 38.908C108.262 43.6104 107.834 48.3118 106.675 52.8776C106.633 53.0458 106.591 53.2142 106.55 53.3828C105.483 57.6897 103.816 61.9993 101.37 66.2883C101.277 66.4511 101.187 66.6155 101.097 66.7803C100.614 67.6634 100.082 68.5198 99.5275 69.3599C99.4676 69.4508 99.4078 69.5418 99.3481 69.6328C98.9512 70.2379 98.5495 70.8349 98.1093 71.4093C97.9707 71.5902 97.839 71.7753 97.708 71.9617C97.2518 72.6069 96.7596 73.2249 96.2452 73.8245C96.13 73.96 96.0184 74.0975 95.9082 74.2371C95.5245 74.7206 95.1173 75.1857 94.7017 75.6419C94.6028 75.7518 94.5054 75.8627 94.4084 75.9742C94.2232 76.1862 94.0334 76.3932 93.8408 76.5984C93.8069 76.6346 93.773 76.6707 93.7381 76.708C93.4752 76.9871 93.2064 77.2599 92.9323 77.5281C92.7883 77.6697 92.6527 77.8131 92.5239 77.9687C92.3699 78.1512 92.2006 78.2967 92.0112 78.4412C91.9788 78.4661 91.9464 78.491 91.913 78.5167C91.0336 79.1854 89.9969 79.6374 88.8771 79.6829C88.8266 79.6851 88.776 79.6872 88.724 79.6893C87.6511 79.7114 86.6883 79.4621 85.7595 78.9432C85.7067 78.9138 85.6538 78.8843 85.5994 78.854C84.3656 78.1166 83.5691 76.8762 83.197 75.5108C82.8579 74.1392 83.1107 72.6489 83.7964 71.424C84.2297 70.7523 84.7784 70.1898 85.3467 69.6327C85.6025 69.3814 85.8431 69.1228 86.0766 68.8507C86.1643 68.7536 86.2524 68.6566 86.3408 68.5601C86.681 68.1865 87.0101 67.8071 87.3288 67.4149C87.4057 67.3205 87.4828 67.2264 87.5604 67.1326C88.4189 66.0942 89.2079 65.0081 89.9622 63.8923C90.0305 63.7914 90.0994 63.691 90.1686 63.5906C90.8718 62.563 91.4979 61.4807 92.0782 60.3799C92.148 60.2477 92.2183 60.1158 92.2888 59.9841C92.3981 59.7794 92.5056 59.5738 92.6122 59.3677C92.6601 59.2753 92.7082 59.1831 92.7566 59.091C94.9498 54.9019 96.3281 50.1883 97.0145 44.8084C97.0186 44.7729 97.0227 44.7374 97.0269 44.7008C97.0853 44.1914 97.1327 43.6815 97.173 43.1704C97.1785 43.1015 97.184 43.0325 97.1897 42.9615C97.5571 38.2298 97.0867 33.4369 95.3236 26.8956C95.3119 26.8586 95.3001 26.8215 95.288 26.7833C94.7614 25.1258 94.1465 23.5101 93.4214 21.9287C93.4058 21.8945 93.3901 21.8604 93.3741 21.8253C92.9526 20.9049 92.5225 19.9939 92.0227 19.1129C91.9342 18.9561 91.8473 18.7984 91.7606 18.6406C91.3854 17.9598 90.9948 17.2943 90.568 16.6446C90.549 16.6157 90.53 16.5867 90.5104 16.5568C89.9663 15.7279 89.419 14.902 88.8243 14.1083C88.7965 14.0711 88.7687 14.034 88.74 13.9957C88.1283 13.1808 87.4844 12.394 86.8163 11.6248C86.7817 11.5848 86.747 11.5447 86.7113 11.5035C86.4679 11.2238 86.2197 10.9485 85.9709 10.6737C85.9268 10.6247 85.8828 10.5756 85.8374 10.5251C85.5678 10.2275 85.2918 9.93916 85.0066 9.65652C83.8218 8.47997 83.0917 7.12717 83.0482 5.43261C83.0707 4.07766 83.5055 2.74567 84.4385 1.74371C84.4849 1.69371 84.5313 1.64372 84.5791 1.59221C85.6219 0.496351 87.023 -0.0237467 88.5204 -0.0165275Z" fill="white"/>
<path d="M76.4596 16.3804C76.7429 16.6085 76.9954 16.8634 77.2522 17.1202C77.3246 17.1914 77.397 17.2625 77.4694 17.3336C78.2392 18.0928 78.2392 18.0928 78.573 18.5201C78.6915 18.6684 78.8177 18.8071 78.9464 18.9465C79.1875 19.2091 79.4116 19.4807 79.6301 19.7622C79.6892 19.8376 79.6892 19.8376 79.7496 19.9145C82.5145 23.4676 84.5284 27.5514 86.5521 37.5694C86.5598 37.66 86.5598 37.66 86.5676 37.7525C86.621 38.4687 86.6155 39.1864 86.6149 39.9042C86.6148 39.9728 86.6148 40.0414 86.6148 40.112C86.6135 41.0835 86.6029 42.0452 86.4993 43.0119C86.4921 43.0821 86.4849 43.1524 86.4778 43.2226C86.0127 47.7498 84.638 52.1599 82.3777 56.1162C82.3533 56.1593 82.3289 56.2023 82.3037 56.2466C81.1421 58.2773 79.7245 60.1489 78.1505 61.8758C78.0868 61.9469 78.0868 61.9469 78.0217 62.0195C77.8726 62.1846 77.7217 62.3478 77.5693 62.5099C77.5377 62.5436 77.5062 62.5773 77.4736 62.6121C76.8124 63.3128 76.1448 63.839 75.2443 64.2008C75.1966 64.2207 75.1488 64.2407 75.0996 64.2613C74.7567 64.3908 74.4099 64.4516 74.0488 64.5046C73.9798 64.5148 73.9798 64.5148 73.9094 64.5251C72.5381 64.7089 71.1397 64.3474 70.008 63.5582C69.8627 63.4431 69.7262 63.323 69.5904 63.1968C69.5522 63.1622 69.5522 63.1622 69.5131 63.1269C68.5339 62.236 67.8698 60.9814 67.7829 59.6474C67.7778 59.4698 67.7765 59.2926 67.7773 59.1149C67.7776 59.052 67.7779 58.989 67.7783 58.9241C67.8012 57.2599 68.5742 55.9458 69.7355 54.808C69.8701 54.6742 69.9951 54.5352 70.1182 54.3909C70.2018 54.2933 70.2864 54.1972 70.3721 54.1015C71.1029 53.2798 71.7464 52.3925 72.3381 51.4663C72.3685 51.4192 72.3685 51.4192 72.3994 51.3711C74.0133 48.8448 75.0274 45.9181 75.4557 42.959C75.4637 42.9056 75.4716 42.8521 75.4799 42.7971C75.8214 40.3998 75.6969 37.8713 75.1915 35.5086C75.174 35.4263 75.174 35.4263 75.1562 35.3424C74.3465 31.5984 72.5302 28.2018 69.9537 25.3831C69.917 25.3428 69.917 25.3428 69.8795 25.3018C69.7455 25.1556 69.6099 25.0112 69.4717 24.8689C68.2592 23.6117 67.7657 22.2197 67.7827 20.4861C67.8138 19.1028 68.4686 17.8258 69.4319 16.856C70.2402 16.0948 71.2454 15.6056 72.3381 15.4293C72.4251 15.4149 72.4251 15.4149 72.5138 15.4002C73.8978 15.2311 75.3228 15.5678 76.4596 16.3804Z" fill="white"/>
<path d="M38.3819 16.7293C39.4957 17.6312 40.2651 18.9056 40.4226 20.3435C40.5164 21.9848 40.1904 23.4345 39.0818 24.6797C39.0006 24.7669 38.9191 24.8539 38.8374 24.9406C38.7671 25.0173 38.6968 25.094 38.6266 25.1708C38.4541 25.3598 38.281 25.5481 38.1067 25.7354C35.3195 28.7381 33.529 32.6191 32.85 36.6414C32.8402 36.6988 32.8402 36.6988 32.8302 36.7574C32.6425 37.8719 32.5822 38.9727 32.5858 40.1024C32.5859 40.1664 32.586 40.2303 32.586 40.2963C32.5885 41.2636 32.6138 42.2127 32.7608 43.1704C32.7699 43.231 32.7789 43.2917 32.7883 43.3541C33.225 46.1926 34.2022 48.9703 35.7198 51.4135C35.7392 51.4449 35.7586 51.4763 35.7785 51.5086C36.2783 52.3144 36.833 53.0749 37.4392 53.8035C37.5088 53.8877 37.577 53.9731 37.645 54.0586C37.8911 54.3679 38.156 54.6481 38.4378 54.9245C38.5833 55.0696 38.7187 55.2198 38.8514 55.3765C38.917 55.4521 38.9851 55.5257 39.0545 55.5978C39.5976 56.167 39.97 56.8492 40.2113 57.5958C40.2224 57.63 40.2335 57.6641 40.2449 57.6994C40.668 59.0722 40.4813 60.5572 39.8414 61.823C39.799 61.9069 39.799 61.9069 39.7557 61.9925C39.0803 63.2282 37.9011 64.1319 36.5587 64.5311C36.0375 64.6763 35.534 64.7488 34.9933 64.7457C34.9378 64.7455 34.8823 64.7452 34.8252 64.7449C34.3831 64.7383 33.9805 64.6912 33.5534 64.5707C33.4886 64.5527 33.4238 64.5347 33.3571 64.5162C32.6036 64.286 31.9752 63.9336 31.3869 63.4082C31.3258 63.3566 31.3258 63.3566 31.2635 63.304C30.8128 62.9154 30.4162 62.4709 30.0131 62.0344C29.9614 61.9788 29.9098 61.9232 29.8581 61.8676C29.6035 61.5912 29.3607 61.3076 29.1247 61.0151C29.0517 60.9246 28.978 60.8345 28.9035 60.7451C28.7784 60.595 28.6555 60.4433 28.5336 60.2906C28.4917 60.2383 28.4917 60.2383 28.4489 60.1849C27.5035 58.9951 26.656 57.7153 25.9065 56.3939C25.8451 56.286 25.7826 56.1788 25.7196 56.0719C24.7722 54.4482 24.0319 52.7079 23.4081 50.9379C23.3876 50.88 23.3671 50.8221 23.346 50.7624C22.525 48.4229 22.0178 46.0058 21.7568 43.5436C21.7524 43.5023 21.748 43.4609 21.7435 43.4183C21.6307 42.3438 21.5989 41.2783 21.5983 40.1982C21.5983 40.1292 21.5982 40.0602 21.5981 39.9892C21.5987 38.8936 21.634 37.8117 21.7582 36.7231C21.77 36.6188 21.7812 36.5144 21.7923 36.4101C22.2039 32.6162 23.3359 28.929 25.0461 25.5218C25.0756 25.463 25.1051 25.4041 25.1355 25.3435C25.5326 24.5554 25.9498 23.7853 26.42 23.0383C26.444 23.0001 26.468 22.9619 26.4927 22.9226C26.6589 22.6595 26.829 22.3992 27.0012 22.14C27.0277 22.1001 27.0542 22.0601 27.0815 22.0189C27.4768 21.4246 27.896 20.8545 28.3402 20.2958C28.4332 20.1783 28.5249 20.0598 28.6166 19.9412C28.7694 19.7444 28.9265 19.5521 29.0884 19.3626C29.1135 19.3331 29.1386 19.3037 29.1645 19.2733C29.2358 19.1895 29.3074 19.106 29.379 19.0225C29.4117 18.9843 29.4444 18.9462 29.4781 18.9069C29.7277 18.6188 29.9857 18.3383 30.2445 18.0586C30.3367 17.9586 30.4281 17.858 30.5196 17.7574C32.5806 15.5056 35.8264 14.7257 38.3819 16.7293Z" fill="white"/>
<path d="M61.3474 32.0212C61.3928 32.0601 61.4382 32.0991 61.485 32.1392C63.5633 33.9498 64.7669 36.6325 64.9768 39.3581C65.1698 42.2853 64.211 45.1581 62.2811 47.3725C61.4092 48.3567 60.4083 49.177 59.2337 49.7755C59.1775 49.8047 59.1775 49.8047 59.12 49.8346C57.627 50.6047 56.0432 50.9681 54.3725 51.0436C54.3344 51.0455 54.2964 51.0473 54.2571 51.0492C51.5108 51.1647 48.7304 50.0102 46.721 48.1799C45.8138 47.3391 45.054 46.3884 44.4913 45.284C44.4621 45.2277 44.4621 45.2277 44.4322 45.1703C43.1348 42.6551 42.8378 39.643 43.6895 36.9353C43.7896 36.6325 43.8996 36.334 44.0158 36.037C44.0323 35.9947 44.0489 35.9523 44.0659 35.9087C44.4377 34.9775 44.9586 34.1115 45.601 33.3422C45.639 33.2962 45.639 33.2962 45.6778 33.2493C46.1698 32.6569 46.6843 32.1277 47.2919 31.6513C47.3396 31.6133 47.3872 31.5753 47.4364 31.5361C48.2201 30.9278 49.0802 30.4641 49.9867 30.0661C50.023 30.0501 50.0594 30.0341 50.0968 30.0176C50.9881 29.6339 51.9818 29.4155 52.9458 29.3263C53.0003 29.3205 53.0548 29.3147 53.1109 29.3088C56.1112 29.0275 59.0986 30.0316 61.3474 32.0212Z" fill="#F01E1E"/>
</g>
<defs>
<clipPath id="clip0_302_8">
<rect width="108.217" height="80" fill="white"/>
</clipPath>
</defs>
</svg>
